<svg xmlns="http://www.w3.org/2000/svg" viewBox="0 0 1600 1000" preserveAspectRatio="xMidYMid slice">
  <defs>
    <linearGradient id="bg" x1="0" y1="0" x2="1" y2="1">
      <stop offset="0%" stop-color="#f4fbff"/>
      <stop offset="45%" stop-color="#fff8ed"/>
      <stop offset="100%" stop-color="#f6f1ff"/>
    </linearGradient>
    <radialGradient id="sun" cx="35%" cy="22%" r="32%">
      <stop offset="0%" stop-color="#fff2a8" stop-opacity="0.72"/>
      <stop offset="100%" stop-color="#fff2a8" stop-opacity="0"/>
    </radialGradient>
    <filter id="blur"><feGaussianBlur stdDeviation="24"/></filter>
  </defs>
  <rect width="1600" height="1000" fill="url(#bg)"/>
  <rect width="1600" height="1000" fill="url(#sun)"/>
  <g opacity="0.5" filter="url(#blur)">
    <circle cx="1220" cy="220" r="170" fill="#b8ddff"/>
    <circle cx="260" cy="780" r="210" fill="#ffd5c8"/>
    <circle cx="980" cy="850" r="240" fill="#d9ccff"/>
  </g>
  <path d="M0 690 C240 620 390 760 620 700 C850 640 1030 600 1260 680 C1420 735 1510 700 1600 650 L1600 1000 L0 1000 Z" fill="#ffffff" opacity="0.42"/>
  <path d="M0 760 C220 700 430 820 690 760 C960 700 1130 760 1600 725 L1600 1000 L0 1000 Z" fill="#ffffff" opacity="0.34"/>
</svg>
